# xmcd
#
# Track frame offsets:
#	150
#	22077
#	38290
#	47050
#	59527
#	92080
#	116120
#	128330
#	145445
#	163032
#	180095
#	202265
#	219032
#	229247
#
# Disc length: 3302
#
# Revision: 3
# Processed by: cddbd v1.5.1PL0 Copyright (c) Steve Scherf et al.
# Submitted via: CDValet v3.31 - Copyright (c) 1997 Greg Leichner
# Normalized: r1:TDELIM( - ),TSWAP
#
DISCID=bd0ce40e
DTITLE=Various Artist - American Superstars of Soul
DYEAR=1900
DGENRE=
TTITLE0=Jean Carne - Don't let it go to your head
TTITLE1=Teddy Pendergrass - Close the door
TTITLE2=Sam Cooke - Only sixteen
TTITLE3=Dyke and The Blazers - We got more soul
TTITLE4=William Devaughn - Be thankfull for what you've got
TTITLE5=Dexter Wansel - The sweet pain
TTITLE6=Jerry Butler - For your precious love
TTITLE7=Patty Labelle - If only you knew
TTITLE8=Curtis Mayfield - Superfly
TTITLE9=The moments - Love on a two way street
TTITLE10=The O'jays - When will see you again
TTITLE11=The Stylistics - I'll see you no more
TTITLE12=Joe Tex - You got what it takes
TTITLE13=Anita Ward - Ring my bell
EXTD=
EXTT0=
EXTT1=
EXTT2=
EXTT3=
EXTT4=
EXTT5=
EXTT6=
EXTT7=
EXTT8=
EXTT9=
EXTT10=
EXTT11=
EXTT12=
EXTT13=
PLAYORDER=
